<svg width="38" height="38" viewBox="0 0 38 38" fill="none" xmlns="http://www.w3.org/2000/svg">
<g clip-path="url(#clip0_94_3431)">
<path d="M27.7924 23.8059C26.1116 25.4509 25.0575 27.4325 24.693 29.3419C24.6167 29.7418 25.2303 30.3687 25.6318 30.301C27.5486 29.9777 29.5523 28.9663 31.2331 27.3213C32.9138 25.6764 33.9679 23.6947 34.3324 21.7853C34.4087 21.3854 33.7951 20.7585 33.3936 20.8262C31.4769 21.1495 29.4731 22.1609 27.7924 23.8059Z" fill="url(#paint0_linear_94_3431)"/>
<path d="M27.7924 23.8059C26.1116 25.4509 25.0575 27.4325 24.693 29.3419C24.6167 29.7418 25.2303 30.3687 25.6318 30.301C27.5486 29.9777 29.5523 28.9663 31.2331 27.3213C32.9138 25.6764 33.9679 23.6947 34.3324 21.7853C34.4087 21.3854 33.7951 20.7585 33.3936 20.8262C31.4769 21.1495 29.4731 22.1609 27.7924 23.8059Z" fill="url(#paint1_linear_94_3431)"/>
<path d="M25.5134 19.91C24.1657 22.5438 23.7 25.3288 24.0281 27.752C24.0968 28.2595 25.0793 28.7623 25.5312 28.5211C27.6884 27.3696 29.6747 25.3626 31.0222 22.7288C32.3698 20.095 32.8356 17.3101 32.5074 14.8868C32.4387 14.3793 31.4563 13.8766 31.0044 14.1178C28.8472 15.2693 26.861 17.2763 25.5134 19.91Z" fill="url(#paint2_linear_94_3431)"/>
<path d="M32.5332 17.7731C32.3551 19.4015 31.8587 21.0942 31.0224 22.7288C29.6747 25.3626 27.6886 27.3696 25.5313 28.5211C25.0795 28.7622 24.0971 28.2595 24.0283 27.7521C23.7001 25.3289 24.1658 22.5438 25.5135 19.9101C26.307 18.3591 27.3221 17.0259 28.4631 15.9564L32.5332 17.7731Z" fill="url(#paint3_linear_94_3431)"/>
<path d="M10.2067 23.8059C11.8874 25.4509 12.9416 27.4325 13.306 29.3419C13.3823 29.7418 12.7687 30.3687 12.3673 30.301C10.4505 29.9777 8.4467 28.9663 6.76598 27.3213C5.08527 25.6764 4.0311 23.6947 3.66667 21.7853C3.59038 21.3854 4.20396 20.7585 4.60542 20.8262C6.52219 21.1495 8.52598 22.1609 10.2067 23.8059Z" fill="url(#paint4_linear_94_3431)"/>
<path d="M10.2067 23.8059C11.8874 25.4509 12.9416 27.4325 13.306 29.3419C13.3823 29.7418 12.7687 30.3687 12.3673 30.301C10.4505 29.9777 8.4467 28.9663 6.76598 27.3213C5.08527 25.6764 4.0311 23.6947 3.66667 21.7853C3.59038 21.3854 4.20396 20.7585 4.60542 20.8262C6.52219 21.1495 8.52598 22.1609 10.2067 23.8059Z" fill="url(#paint5_linear_94_3431)"/>
<path d="M12.4861 19.91C13.8338 22.5438 14.2994 25.3288 13.9713 27.752C13.9026 28.2595 12.9201 28.7623 12.4683 28.5211C10.311 27.3696 8.3248 25.3626 6.97721 22.7288C5.62963 20.095 5.16387 17.3101 5.49201 14.8868C5.56071 14.3793 6.54319 13.8766 6.99502 14.1178C9.15223 15.2693 11.1384 17.2763 12.4861 19.91Z" fill="url(#paint6_linear_94_3431)"/>
<path d="M5.46638 17.7731C5.64445 19.4015 6.14084 21.0942 6.97721 22.7288C8.32487 25.3626 10.311 27.3696 12.4683 28.5211C12.92 28.7622 13.9025 28.2595 13.9713 27.7521C14.2994 25.3289 13.8338 22.5438 12.4861 19.9101C11.6926 18.3591 10.6774 17.0259 9.53647 15.9564L5.46638 17.7731Z" fill="url(#paint7_linear_94_3431)"/>
<path d="M18.9996 38C12.4556 38 7.15064 32.695 7.15064 26.151C7.15064 19.607 12.4556 14.302 18.9996 14.302C25.5437 14.302 30.8486 19.607 30.8486 26.151C30.8486 32.695 25.5437 38 18.9996 38Z" fill="url(#paint8_linear_94_3431)"/>
<path d="M18.9998 35.5955C13.7838 35.5955 9.55535 31.3671 9.55535 26.151C9.55535 20.935 13.7838 16.7065 18.9998 16.7065C24.2159 16.7065 28.4443 20.935 28.4443 26.151C28.4443 31.3671 24.2159 35.5955 18.9998 35.5955Z" fill="url(#paint9_linear_94_3431)"/>
<path d="M18.9993 34.2592C14.5213 34.2592 10.8911 30.629 10.8911 26.151C10.8911 21.673 14.5213 18.0428 18.9993 18.0428C23.4773 18.0428 27.1074 21.673 27.1074 26.151C27.1074 30.629 23.4773 34.2592 18.9993 34.2592Z" fill="url(#paint10_linear_94_3431)"/>
<path d="M30.8486 26.151C30.8486 32.695 25.5437 38 18.9996 38C12.4556 38 7.15064 32.695 7.15064 26.151C7.15064 26.105 7.15183 26.0593 7.15235 26.0134H30.8469C30.8474 26.0593 30.8486 26.105 30.8486 26.151Z" fill="url(#paint11_linear_94_3431)"/>
<path d="M15.676 37.5269C11.9424 36.438 8.97136 33.5615 7.75141 29.8857L13.5224 24.1147L14.8234 24.1786L18.3348 20.6672L22.6143 30.5886L15.676 37.5269Z" fill="url(#paint12_linear_94_3431)"/>
<path d="M14.1411 23.5763L16.4648 23.0149C16.681 22.9626 16.8699 22.8316 16.9945 22.6474L18.3341 20.6673C18.4961 20.4278 18.7443 20.2993 18.9997 20.2786C19.2552 20.2993 19.5034 20.4278 19.6654 20.6673L21.0049 22.6474C21.1295 22.8316 21.3184 22.9626 21.5346 23.0149L23.8584 23.5763C24.4887 23.7286 24.7514 24.4809 24.3529 24.9925L22.8836 26.8783C22.747 27.0538 22.6807 27.2739 22.6978 27.4957L22.8819 29.8792C22.9318 30.5257 22.2975 31.0081 21.6878 30.7871L19.4402 29.9725C19.2982 29.921 19.1467 29.9078 18.9997 29.9306C18.8527 29.9078 18.7013 29.9211 18.5592 29.9725L16.3117 30.7871C15.702 31.008 15.0676 30.5257 15.1176 29.8792L15.3017 27.4957C15.3188 27.2739 15.2525 27.0538 15.1158 26.8783L13.6466 24.9925C13.2481 24.4809 13.5108 23.7286 14.1411 23.5763Z" fill="url(#paint13_linear_94_3431)"/>
<path d="M18.5595 29.9725L16.3119 30.7871C15.7023 31.008 15.0679 30.5257 15.1178 29.8792L15.3019 27.4957C15.3191 27.2739 15.2528 27.0538 15.1161 26.8783L13.6468 24.9925C13.2483 24.481 13.511 23.7286 14.1414 23.5763L16.4651 23.0149C16.6813 22.9626 16.8701 22.8316 16.9948 22.6474L18.3343 20.6673C18.4964 20.4278 18.7446 20.2993 19 20.2786V29.9306C18.8529 29.9078 18.7014 29.921 18.5595 29.9725Z" fill="url(#paint14_linear_94_3431)"/>
<path d="M14.1408 23.5762L16.4646 23.0148C16.5439 22.9957 16.6195 22.9656 16.6896 22.9265L22.6133 30.5886C22.3809 30.8132 22.0303 30.9113 21.6876 30.7871L19.44 29.9725C19.298 29.921 19.1465 29.9078 18.9995 29.9306C18.8524 29.9079 18.701 29.9211 18.559 29.9725L16.3114 30.7871C15.7018 31.008 15.0674 30.5257 15.1173 29.8792L15.3014 27.4957C15.3185 27.2739 15.2522 27.0538 15.1156 26.8784L13.6463 24.9925C13.2478 24.4809 13.5105 23.7285 14.1408 23.5762Z" fill="url(#paint15_linear_94_3431)"/>
<path d="M23.8584 23.5762L21.5346 23.0148C21.4553 22.9957 21.3797 22.9656 21.3096 22.9265L15.3859 30.5886C15.6183 30.8132 15.9689 30.9113 16.3117 30.7871L18.5592 29.9725C18.7013 29.921 18.8527 29.9078 18.9997 29.9306C19.1468 29.9079 19.2982 29.9211 19.4402 29.9725L21.6878 30.7871C22.2975 31.008 22.9318 30.5257 22.8819 29.8792L22.6978 27.4957C22.6807 27.2739 22.747 27.0538 22.8836 26.8784L24.3529 24.9925C24.7514 24.4809 24.4887 23.7285 23.8584 23.5762Z" fill="url(#paint16_linear_94_3431)"/>
<path d="M24.4768 24.1147C24.5873 24.3934 24.5608 24.7255 24.3529 24.9925L22.8836 26.8783C22.7469 27.0538 22.6806 27.2739 22.6978 27.4956L22.8819 29.8791C22.9318 30.5256 22.2975 31.008 21.6878 30.787L19.4402 29.9725C19.2982 29.921 19.1467 29.9077 18.9997 29.9305C18.8526 29.9078 18.7012 29.9211 18.5592 29.9725L16.3116 30.787C15.702 31.0079 15.0676 30.5256 15.1175 29.8791L15.3016 27.4956C15.3112 27.3726 15.2941 27.2503 15.2545 27.1357L24.4768 24.1147Z" fill="url(#paint17_linear_94_3431)"/>
<path d="M13.5217 24.1147C13.4112 24.3934 13.4377 24.7255 13.6457 24.9925L15.1149 26.8783C15.2516 27.0538 15.3179 27.2739 15.3008 27.4956L15.1167 29.8791C15.0667 30.5256 15.7011 31.008 16.3107 30.787L18.5583 29.9725C18.7004 29.921 18.8518 29.9077 18.9988 29.9305C19.1459 29.9078 19.2973 29.9211 19.4393 29.9725L21.6869 30.787C22.2966 31.0079 22.9309 30.5256 22.881 29.8791L22.6969 27.4956C22.6874 27.3726 22.7044 27.2503 22.7441 27.1357L13.5217 24.1147Z" fill="url(#paint18_linear_94_3431)"/>
<path d="M19 14.302C19.0491 14.302 19.0979 14.3033 19.147 14.3039L20.9756 16.1325L7.62633 29.4817C7.31742 28.425 7.15096 27.3075 7.15096 26.1509C7.15096 19.607 12.4559 14.302 19 14.302Z" fill="url(#paint19_linear_94_3431)"/>
<path d="M26.1523 0.248291V6.50711L18.9994 13.6601L11.8465 6.50711V0.248291H26.1523Z" fill="url(#paint20_linear_94_3431)"/>
<path d="M26.1523 0.248291V2.19613L19.0233 9.32515C19.0101 9.33834 18.9887 9.33834 18.9755 9.32515L11.8465 2.19613V0.248291H26.1523Z" fill="url(#paint21_linear_94_3431)"/>
<path d="M18.9994 10.4522C19.2943 10.4522 19.5891 10.34 19.8136 10.1155L26.1523 3.77673V6.50722L18.9994 13.6602L11.8465 6.50722V3.77673L18.1852 10.1155C18.4097 10.3399 18.7045 10.4522 18.9994 10.4522Z" fill="url(#paint22_linear_94_3431)"/>
<path d="M26.1523 0.248291V2.19613L19.0233 9.32515C19.0101 9.33834 18.9887 9.33834 18.9755 9.32515L11.8465 2.19613V0.248291H26.1523Z" fill="url(#paint23_linear_94_3431)"/>
<path d="M18.9994 10.4522C19.2943 10.4522 19.5891 10.34 19.8136 10.1155L26.1523 3.77673V6.50722L18.9994 13.6602L11.8465 6.50722V3.77673L18.1852 10.1155C18.4097 10.3399 18.7045 10.4522 18.9994 10.4522Z" fill="url(#paint24_linear_94_3431)"/>
<path d="M18.9994 10.4522C18.7045 10.4522 18.4097 10.34 18.1852 10.1155L11.8465 3.77673V6.50722L18.9994 13.6602L26.1523 6.50722V3.77673L19.8136 10.1155C19.5891 10.3399 19.2942 10.4522 18.9994 10.4522Z" fill="url(#paint25_linear_94_3431)"/>
<path d="M19.7839 12.0353L25.8709 5.94829C26.3273 5.49185 27.0674 5.49185 27.5239 5.94829C27.9803 6.40474 27.9803 7.14485 27.5239 7.60129L18.9995 16.1258L10.4751 7.60137C10.0186 7.14492 10.0186 6.40481 10.4751 5.94837C10.9315 5.49192 11.6716 5.49192 12.1281 5.94837L18.2151 12.0354C18.6483 12.4686 19.3507 12.4686 19.7839 12.0353Z" fill="url(#paint26_linear_94_3431)"/>
<path d="M27.5241 5.96215L19.8972 13.589C19.4015 14.0848 18.5977 14.0848 18.102 13.589L10.4752 5.96215C10.473 5.95992 10.4712 5.95746 10.4689 5.95522C10.4711 5.95299 10.473 5.95053 10.4752 5.94829C10.9316 5.49185 11.6718 5.49185 12.1282 5.94829L18.2152 12.0353C18.6484 12.4685 19.3508 12.4685 19.784 12.0353L25.871 5.94829C26.3275 5.49185 27.0676 5.49185 27.524 5.94829C27.5262 5.95053 27.528 5.95299 27.5303 5.95522C27.5281 5.95746 27.5263 5.95992 27.5241 5.96215Z" fill="url(#paint27_linear_94_3431)"/>
<path d="M18.9992 16.1259L12.9819 10.1085H16.2879L18.2148 12.0354C18.648 12.4686 19.3504 12.4686 19.7836 12.0354L21.7105 10.1085H25.0166L18.9992 16.1259Z" fill="url(#paint28_linear_94_3431)"/>
<path d="M19.7441 15.3807L18.999 16.1258L11.3673 8.49402H14.6734L18.2146 12.0352C18.6352 12.4559 19.3087 12.4668 19.7441 12.0708V15.3807Z" fill="url(#paint29_linear_94_3431)"/>
<path d="M19 16.9509C17.4569 16.9509 16.206 15.7 16.206 14.1569C16.206 12.6138 17.4569 11.3629 19 11.3629C20.543 11.3629 21.7939 12.6138 21.7939 14.1569C21.7939 15.7 20.543 16.9509 19 16.9509Z" fill="url(#paint30_linear_94_3431)"/>
<path d="M18.9998 15.7587C18.1151 15.7587 17.3979 15.0415 17.3979 14.1569C17.3979 13.2722 18.1151 12.5551 18.9998 12.5551C19.8844 12.5551 20.6016 13.2722 20.6016 14.1569C20.6016 15.0415 19.8844 15.7587 18.9998 15.7587Z" fill="url(#paint31_linear_94_3431)"/>
<path d="M10.7662 2.78167H27.2331C27.7063 2.78167 28.0898 2.3981 28.0898 1.92496V0.856714C28.0898 0.383577 27.7063 0 27.2331 0H10.7661C10.293 0 9.90945 0.383577 9.90945 0.856714V1.92504C9.90945 2.39817 10.293 2.78167 10.7662 2.78167Z" fill="url(#paint32_linear_94_3431)"/>
</g>
<defs>
<linearGradient id="paint0_linear_94_3431" x1="32.2199" y1="21.3512" x2="29.784" y2="25.1878" gradientUnits="userSpaceOnUse">
<stop stop-color="#FBC56D"/>
<stop offset="1" stop-color="#C5715A"/>
</linearGradient>
<linearGradient id="paint1_linear_94_3431" x1="31.8772" y1="24.7297" x2="29.278" y2="25.6781" gradientUnits="userSpaceOnUse">
<stop stop-color="#8C3D27" stop-opacity="0"/>
<stop offset="1" stop-color="#8C3D27"/>
</linearGradient>
<linearGradient id="paint2_linear_94_3431" x1="28.0534" y1="17.2604" x2="28.3948" y2="23.2939" gradientUnits="userSpaceOnUse">
<stop stop-color="#FBC56D"/>
<stop offset="1" stop-color="#C5715A"/>
</linearGradient>
<linearGradient id="paint3_linear_94_3431" x1="28.829" y1="20.3199" x2="27.3554" y2="23.0829" gradientUnits="userSpaceOnUse">
<stop stop-color="#8C3D27" stop-opacity="0"/>
<stop offset="1" stop-color="#8C3D27"/>
</linearGradient>
<linearGradient id="paint4_linear_94_3431" x1="5.7851" y1="21.3617" x2="8.221" y2="25.1983" gradientUnits="userSpaceOnUse">
<stop stop-color="#FBC56D"/>
<stop offset="1" stop-color="#C5715A"/>
</linearGradient>
<linearGradient id="paint5_linear_94_3431" x1="6.12782" y1="24.7401" x2="8.72699" y2="25.6886" gradientUnits="userSpaceOnUse">
<stop stop-color="#8C3D27" stop-opacity="0"/>
<stop offset="1" stop-color="#8C3D27"/>
</linearGradient>
<linearGradient id="paint6_linear_94_3431" x1="9.95205" y1="17.271" x2="9.6106" y2="23.3044" gradientUnits="userSpaceOnUse">
<stop stop-color="#FBC56D"/>
<stop offset="1" stop-color="#C5715A"/>
</linearGradient>
<linearGradient id="paint7_linear_94_3431" x1="9.17657" y1="20.3303" x2="10.6502" y2="23.0933" gradientUnits="userSpaceOnUse">
<stop stop-color="#8C3D27" stop-opacity="0"/>
<stop offset="1" stop-color="#8C3D27"/>
</linearGradient>
<linearGradient id="paint8_linear_94_3431" x1="26.305" y1="18.8456" x2="13.8085" y2="31.3421" gradientUnits="userSpaceOnUse">
<stop stop-color="#FBC56D"/>
<stop offset="1" stop-color="#C5715A"/>
</linearGradient>
<linearGradient id="paint9_linear_94_3431" x1="12.8657" y1="32.2851" x2="25.3129" y2="19.838" gradientUnits="userSpaceOnUse">
<stop stop-color="#FBC56D"/>
<stop offset="1" stop-color="#C5715A"/>
</linearGradient>
<linearGradient id="paint10_linear_94_3431" x1="24.8937" y1="20.2566" x2="15.1912" y2="29.9591" gradientUnits="userSpaceOnUse">
<stop stop-color="#FBC56D"/>
<stop offset="1" stop-color="#C5715A"/>
</linearGradient>
<linearGradient id="paint11_linear_94_3431" x1="18.9996" y1="29.6178" x2="18.9996" y2="37.3951" gradientUnits="userSpaceOnUse">
<stop stop-color="#8C3D27" stop-opacity="0"/>
<stop offset="1" stop-color="#8C3D27"/>
</linearGradient>
<linearGradient id="paint12_linear_94_3431" x1="11.9027" y1="32.3089" x2="21.6883" y2="26.1494" gradientUnits="userSpaceOnUse">
<stop stop-color="#8C3D27" stop-opacity="0"/>
<stop offset="1" stop-color="#8C3D27"/>
</linearGradient>
<linearGradient id="paint13_linear_94_3431" x1="21.468" y1="23.8988" x2="17.017" y2="28.3496" gradientUnits="userSpaceOnUse">
<stop stop-color="#FBC56D"/>
<stop offset="1" stop-color="#C5715A"/>
</linearGradient>
<linearGradient id="paint14_linear_94_3431" x1="16.3331" y1="25.1123" x2="22.4848" y2="27.6555" gradientUnits="userSpaceOnUse">
<stop stop-color="#8C3D27" stop-opacity="0"/>
<stop offset="1" stop-color="#8C3D27"/>
</linearGradient>
<linearGradient id="paint15_linear_94_3431" x1="17.9388" y1="27.2954" x2="21.3068" y2="25.8519" gradientUnits="userSpaceOnUse">
<stop stop-color="#8C3D27" stop-opacity="0"/>
<stop offset="1" stop-color="#8C3D27"/>
</linearGradient>
<linearGradient id="paint16_linear_94_3431" x1="20.0605" y1="27.2954" x2="16.6925" y2="25.8519" gradientUnits="userSpaceOnUse">
<stop stop-color="#8C3D27" stop-opacity="0"/>
<stop offset="1" stop-color="#8C3D27"/>
</linearGradient>
<linearGradient id="paint17_linear_94_3431" x1="19.9855" y1="27.4643" x2="17.8204" y2="23.9847" gradientUnits="userSpaceOnUse">
<stop stop-color="#8C3D27" stop-opacity="0"/>
<stop offset="1" stop-color="#8C3D27"/>
</linearGradient>
<linearGradient id="paint18_linear_94_3431" x1="18.1799" y1="27.0249" x2="18.3603" y2="23.6225" gradientUnits="userSpaceOnUse">
<stop stop-color="#8C3D27" stop-opacity="0"/>
<stop offset="1" stop-color="#8C3D27"/>
</linearGradient>
<linearGradient id="paint19_linear_94_3431" x1="13.1611" y1="21.1453" x2="17.731" y2="13.1479" gradientUnits="userSpaceOnUse">
<stop stop-color="#8C3D27" stop-opacity="0"/>
<stop offset="1" stop-color="#8C3D27"/>
</linearGradient>
<linearGradient id="paint20_linear_94_3431" x1="18.4695" y1="4.22287" x2="15.5264" y2="8.91699" gradientUnits="userSpaceOnUse">
<stop stop-color="#F9F5F3"/>
<stop offset="1" stop-color="#D8E8F0"/>
</linearGradient>
<linearGradient id="paint21_linear_94_3431" x1="21.4051" y1="-1.53644" x2="12.2652" y2="8.94455" gradientUnits="userSpaceOnUse">
<stop stop-color="#BBEC6C"/>
<stop offset="1" stop-color="#81B823"/>
</linearGradient>
<linearGradient id="paint22_linear_94_3431" x1="23.3467" y1="0.156749" x2="14.2069" y2="10.6377" gradientUnits="userSpaceOnUse">
<stop stop-color="#BBEC6C"/>
<stop offset="1" stop-color="#81B823"/>
</linearGradient>
<linearGradient id="paint23_linear_94_3431" x1="18.9994" y1="4.95485" x2="18.9994" y2="2.49349" gradientUnits="userSpaceOnUse">
<stop stop-color="#78A91F" stop-opacity="0"/>
<stop offset="1" stop-color="#78A91F"/>
</linearGradient>
<linearGradient id="paint24_linear_94_3431" x1="16.1684" y1="7.9729" x2="14.8965" y2="9.24478" gradientUnits="userSpaceOnUse">
<stop stop-color="#78A91F" stop-opacity="0"/>
<stop offset="1" stop-color="#78A91F"/>
</linearGradient>
<linearGradient id="paint25_linear_94_3431" x1="21.8304" y1="7.9729" x2="23.1023" y2="9.24478" gradientUnits="userSpaceOnUse">
<stop stop-color="#78A91F" stop-opacity="0"/>
<stop offset="1" stop-color="#78A91F"/>
</linearGradient>
<linearGradient id="paint26_linear_94_3431" x1="12.5405" y1="13.2338" x2="27.8195" y2="-2.04519" gradientUnits="userSpaceOnUse">
<stop stop-color="#FBC56D"/>
<stop offset="1" stop-color="#C5715A"/>
</linearGradient>
<linearGradient id="paint27_linear_94_3431" x1="18.9996" y1="6.08494" x2="18.9996" y2="16.5192" gradientUnits="userSpaceOnUse">
<stop stop-color="#FBC56D"/>
<stop offset="1" stop-color="#C5715A"/>
</linearGradient>
<linearGradient id="paint28_linear_94_3431" x1="18.9992" y1="12.1451" x2="18.9992" y2="15.5758" gradientUnits="userSpaceOnUse">
<stop stop-color="#8C3D27" stop-opacity="0"/>
<stop offset="1" stop-color="#8C3D27"/>
</linearGradient>
<linearGradient id="paint29_linear_94_3431" x1="15.4772" y1="10.2025" x2="17.5635" y2="12.326" gradientUnits="userSpaceOnUse">
<stop stop-color="#8C3D27" stop-opacity="0"/>
<stop offset="1" stop-color="#8C3D27"/>
</linearGradient>
<linearGradient id="paint30_linear_94_3431" x1="20.6019" y1="12.5549" x2="16.6507" y2="16.5062" gradientUnits="userSpaceOnUse">
<stop stop-color="#FBC56D"/>
<stop offset="1" stop-color="#C5715A"/>
</linearGradient>
<linearGradient id="paint31_linear_94_3431" x1="17.8635" y1="15.2931" x2="19.8194" y2="13.3372" gradientUnits="userSpaceOnUse">
<stop stop-color="#FBC56D"/>
<stop offset="1" stop-color="#C5715A"/>
</linearGradient>
<linearGradient id="paint32_linear_94_3431" x1="18.9996" y1="0.84442" x2="18.9996" y2="2.39705" gradientUnits="userSpaceOnUse">
<stop stop-color="#FBC56D"/>
<stop offset="1" stop-color="#C5715A"/>
</linearGradient>
<clipPath id="clip0_94_3431">
<rect width="38" height="38" fill="white" transform="matrix(-1 0 0 1 38 0)"/>
</clipPath>
</defs>
</svg>
