<svg width="127" height="127" viewBox="0 0 127 127" fill="none" xmlns="http://www.w3.org/2000/svg">
<circle cx="63.5" cy="63.5" r="63.5" fill="#101010"/>
<mask id="mask0_94_3264" style="mask-type:alpha" maskUnits="userSpaceOnUse" x="40" y="27" width="52" height="75">
<path d="M65.624 64.5577C65.624 61.4701 66.8506 58.509 69.0338 56.3258C71.217 54.1425 74.1781 52.916 77.2657 52.916C80.3533 52.916 83.3144 54.1425 85.4976 56.3258C87.6808 58.509 88.9074 61.4701 88.9074 64.5577C88.9074 67.6452 87.6808 70.6063 85.4976 72.7896C83.3144 74.9728 80.3533 76.1993 77.2657 76.1993C74.1781 76.1993 71.217 74.9728 69.0338 72.7896C66.8506 70.6063 65.624 67.6452 65.624 64.5577V64.5577Z" stroke="#1E1E1E" stroke-width="4.28904"/>
<path d="M42.3398 87.8419C42.3398 84.7543 43.5664 81.7932 45.7496 79.61C47.9328 77.4267 50.8939 76.2002 53.9815 76.2002H65.6232V87.8419C65.6232 90.9294 64.3966 93.8905 62.2134 96.0738C60.0302 98.257 57.0691 99.4835 53.9815 99.4835C50.8939 99.4835 47.9328 98.257 45.7496 96.0738C43.5664 93.8905 42.3398 90.9294 42.3398 87.8419Z" stroke="#1E1E1E" stroke-width="4.28904"/>
<path d="M65.624 29.6335V52.9169H77.2657C80.3533 52.9169 83.3144 51.6903 85.4976 49.5071C87.6808 47.3239 88.9074 44.3628 88.9074 41.2752C88.9074 38.1876 87.6808 35.2265 85.4976 33.0433C83.3144 30.8601 80.3533 29.6335 77.2657 29.6335H65.624Z" stroke="#1E1E1E" stroke-width="4.28904"/>
<path d="M42.3398 41.2752C42.3398 44.3628 43.5664 47.3239 45.7496 49.5071C47.9328 51.6903 50.8939 52.9169 53.9815 52.9169H65.6232V29.6335H53.9815C50.8939 29.6335 47.9328 30.8601 45.7496 33.0433C43.5664 35.2265 42.3398 38.1876 42.3398 41.2752Z" stroke="#1E1E1E" stroke-width="4.28904"/>
<path d="M42.3398 64.5577C42.3398 67.6452 43.5664 70.6063 45.7496 72.7896C47.9328 74.9728 50.8939 76.1993 53.9815 76.1993H65.6232V52.916H53.9815C50.8939 52.916 47.9328 54.1425 45.7496 56.3258C43.5664 58.509 42.3398 61.4701 42.3398 64.5577Z" stroke="#1E1E1E" stroke-width="4.28904"/>
</mask>
<g mask="url(#mask0_94_3264)">
<rect x="107.28" y="-37.7664" width="177.689" height="177.689" rx="28.5634" transform="rotate(90 107.28 -37.7664)" fill="url(#paint0_angular_94_3264)"/>
</g>
<defs>
<radialGradient id="paint0_angular_94_3264" cx="0" cy="0" r="1" gradientUnits="userSpaceOnUse" gradientTransform="translate(193.459 51.0779) rotate(90) scale(88.8443 86.179)">
<stop offset="0.0729167" stop-color="#E3A455"/>
<stop offset="0.244792" stop-color="#F6DBA6"/>
<stop offset="0.434957" stop-color="#FFEBC4"/>
<stop offset="0.532623" stop-color="#F0BE79"/>
<stop offset="0.593311" stop-color="#8F653B"/>
<stop offset="0.627652" stop-color="#673D22"/>
<stop offset="0.708863" stop-color="#BA7F3B"/>
<stop offset="0.773898" stop-color="#EEBC70"/>
<stop offset="0.921875" stop-color="#3F1F0F"/>
</radialGradient>
</defs>
</svg>
