<svg width="58" height="58" viewBox="0 0 58 58" fill="none" xmlns="http://www.w3.org/2000/svg">
<rect width="58" height="58" rx="12" fill="url(#paint0_linear_82_2023)"/>
<path fill-rule="evenodd" clip-rule="evenodd" d="M24.6792 23.6876H33.3208C34.2615 23.6876 35.0732 23.6876 35.7235 23.7754C36.4205 23.8689 37.0877 24.08 37.6289 24.6211C38.1701 25.1623 38.3812 25.831 38.4747 26.5266C38.5625 27.1768 38.5625 27.9886 38.5625 28.9306V34.7361C38.5625 35.6782 38.5625 36.49 38.4747 37.1402C38.3812 37.8372 38.1701 38.5045 37.6289 39.0456C37.0877 39.5868 36.4191 39.7979 35.7235 39.8914C35.0732 39.9792 34.2615 39.9792 33.3208 39.9792H24.6792C23.7385 39.9792 22.9268 39.9792 22.2765 39.8914C21.5809 39.7979 20.9122 39.5868 20.3711 39.0456C19.8299 38.5045 19.6188 37.8358 19.5253 37.1402C19.4375 36.49 19.4375 35.6782 19.4375 34.7361V28.9306C19.4375 27.9886 19.4375 27.1768 19.5253 26.5266C19.6188 25.831 19.8299 25.1623 20.3711 24.6211C20.9122 24.08 21.5809 23.8689 22.2765 23.7754C22.9268 23.6876 23.7385 23.6876 24.6806 23.6876H24.6792ZM22.5612 25.8806C22.1008 25.9429 21.9563 26.0435 21.8756 26.1242C21.7948 26.205 21.6942 26.3495 21.6319 26.8099C21.5667 27.3015 21.5639 27.9687 21.5639 29.0001V34.6667C21.5639 35.6981 21.5667 36.3667 21.6319 36.8569C21.6942 37.3173 21.7948 37.4618 21.8756 37.5426C21.9563 37.6233 22.1008 37.7239 22.5612 37.7862C23.0528 37.8514 23.7201 37.8542 24.7514 37.8542H33.2514C34.2828 37.8542 34.9514 37.8514 35.4416 37.7862C35.902 37.7239 36.0465 37.6233 36.1273 37.5426C36.208 37.4618 36.3086 37.3173 36.3709 36.8569C36.4361 36.3653 36.4389 35.6981 36.4389 34.6667V29.0001C36.4389 27.9687 36.4361 27.3001 36.3709 26.8099C36.3086 26.3495 36.208 26.205 36.1273 26.1242C36.0465 26.0435 35.902 25.9429 35.4416 25.8806C34.95 25.8154 34.2828 25.8126 33.2514 25.8126H24.75C23.7187 25.8126 23.0514 25.8154 22.5612 25.8806Z" fill="white"/>
<path d="M21.916 19.4376C21.6342 19.4376 21.364 19.5495 21.1647 19.7488C20.9655 19.948 20.8535 20.2183 20.8535 20.5001C20.8535 20.7819 20.9655 21.0521 21.1647 21.2514C21.364 21.4506 21.6342 21.5626 21.916 21.5626H28.9993C29.2811 21.5626 29.5514 21.4506 29.7506 21.2514C29.9499 21.0521 30.0618 20.7819 30.0618 20.5001C30.0618 20.2183 29.9499 19.948 29.7506 19.7488C29.5514 19.5495 29.2811 19.4376 28.9993 19.4376H21.916Z" fill="white"/>
<path fill-rule="evenodd" clip-rule="evenodd" d="M27.504 13.7708H30.496C33.0998 13.7708 35.1625 13.7708 36.7761 13.9876C38.4364 14.2114 39.7808 14.6817 40.8419 15.7414C41.9016 16.8025 42.3719 18.1469 42.5957 19.8072C42.8125 21.4222 42.8125 23.4835 42.8125 26.0873V31.9126C42.8125 34.5165 42.8125 36.5791 42.5957 38.1927C42.3719 39.8531 41.9016 41.1975 40.8419 42.2586C39.7808 43.3182 38.4364 43.7886 36.7761 44.0124C35.1611 44.2291 33.0998 44.2291 30.496 44.2291H27.504C24.9002 44.2291 22.8375 44.2291 21.2239 44.0124C19.5636 43.7886 18.2192 43.3182 17.1581 42.2586C16.0984 41.1975 15.6281 39.8531 15.4043 38.1927C15.1875 36.5777 15.1875 34.5165 15.1875 31.9126V26.0873C15.1875 23.4835 15.1875 21.4208 15.4043 19.8072C15.6281 18.1469 16.0984 16.8025 17.1581 15.7414C18.2192 14.6817 19.5636 14.2114 21.2239 13.9876C22.8389 13.7708 24.9002 13.7708 27.504 13.7708ZM21.5058 16.0941C20.0807 16.2854 19.259 16.6452 18.6583 17.2445C18.0605 17.8437 17.7007 18.6654 17.5094 20.0906C17.3139 21.5469 17.3111 23.4651 17.3111 26.1666V31.8333C17.3111 34.5349 17.3139 36.4545 17.5094 37.9108C17.7007 39.3346 18.0605 40.1562 18.6598 40.7555C19.259 41.3547 20.0807 41.7146 21.5058 41.9058C22.9622 42.1013 24.8803 42.1041 27.5819 42.1041H30.4152C33.1168 42.1041 35.0364 42.1013 36.4927 41.9058C37.9165 41.7146 38.7382 41.3547 39.3374 40.7555C39.9367 40.1562 40.2965 39.3346 40.4877 37.9094C40.6832 36.4545 40.6861 34.5349 40.6861 31.8333V26.1666C40.6861 23.4651 40.6832 21.5469 40.4877 20.0891C40.2965 18.6654 39.9367 17.8437 39.3374 17.2445C38.7382 16.6452 37.9165 16.2854 36.4913 16.0941C35.0364 15.8986 33.1168 15.8958 30.4152 15.8958H27.5819C24.8803 15.8958 22.9636 15.8986 21.5058 16.0941Z" fill="white"/>
<defs>
<linearGradient id="paint0_linear_82_2023" x1="-13.1406" y1="-4.07813" x2="28.7399" y2="-21.0954" gradientUnits="userSpaceOnUse">
<stop stop-color="#542592"/>
<stop offset="1" stop-color="#83087C"/>
</linearGradient>
</defs>
</svg>
