<svg width="29" height="29" viewBox="0 0 29 29" fill="none" xmlns="http://www.w3.org/2000/svg">
<g clip-path="url(#clip0_94_3020)">
<path d="M6.54655 14.8824H22.961C23.4146 14.8824 23.7817 14.5153 23.7817 14.0617C23.7817 13.6081 23.4146 13.241 22.961 13.241C19.7935 13.241 17.2159 10.6634 17.2159 7.49593V6.56578H19.6781C20.0099 6.56578 20.3097 6.36623 20.4363 6.05923C20.5629 5.75223 20.4924 5.39959 20.2583 5.16475L15.334 0.24043C15.0134 -0.0801434 14.494 -0.0801434 14.1735 0.24043L9.24913 5.16475C9.01512 5.39959 8.94459 5.75223 9.0712 6.05923C9.19781 6.36623 9.49765 6.56578 9.82944 6.56578H12.2916V7.49593C12.2916 10.6634 9.71404 13.241 6.54655 13.241C6.09292 13.241 5.72583 13.6081 5.72583 14.0617C5.72583 14.5153 6.09292 14.8824 6.54655 14.8824ZM22.961 15.7031H21.3195C20.4138 15.7031 19.6781 16.4397 19.6781 17.3446C19.6781 16.4397 18.9423 15.7031 18.0366 15.7031C17.131 15.7031 16.3952 16.4397 16.3952 17.3446C16.3952 16.4397 15.6595 15.7031 14.7538 15.7031C13.8481 15.7031 13.1123 16.4397 13.1123 17.3446C13.1123 16.4397 12.3766 15.7031 11.4709 15.7031H9.82944C8.92375 15.7031 8.188 16.4397 8.188 17.3446C8.188 18.2494 8.92375 18.986 9.82944 18.986V20.6275V23.9103C9.82944 24.8152 10.5652 25.5518 11.4709 25.5518C12.3766 25.5518 13.1123 24.8152 13.1123 23.9103V22.2689C13.1123 24.0795 14.5855 25.5518 16.3952 25.5518C18.2049 25.5518 19.6781 24.0795 19.6781 22.2689V23.9103C19.6781 24.8152 20.4138 25.5518 21.3195 25.5518C22.2252 25.5518 22.961 24.8152 22.961 23.9103V22.2689C24.7707 22.2689 26.2439 20.7966 26.2439 18.986C26.2439 17.1755 24.7707 15.7031 22.961 15.7031ZM8.188 18.986C8.188 18.0811 7.45225 17.3446 6.54655 17.3446C5.64086 17.3446 4.90511 18.0811 4.90511 18.986C3.99942 18.986 3.26367 19.7226 3.26367 20.6275C3.26367 21.5323 3.99942 22.2689 4.90511 22.2689C4.90511 23.1738 5.64086 23.9103 6.54655 23.9103C7.45225 23.9103 8.188 23.1738 8.188 22.2689C9.09369 22.2689 9.82944 21.5323 9.82944 20.6275C9.82944 19.7226 9.09369 18.986 8.188 18.986Z" fill="url(#paint0_linear_94_3020)"/>
<path d="M22.9612 18.1653H22.1405V19.8068H22.9612C23.4133 19.8068 23.782 19.4389 23.782 18.9861C23.782 18.5332 23.4133 18.1653 22.9612 18.1653ZM24.6574 13.241H4.85067C2.58729 13.241 0.74707 15.082 0.74707 17.3446V23.9104C0.74707 26.173 2.58729 28.014 4.85067 28.014H24.6574C26.9208 28.014 28.761 26.173 28.761 23.9104V17.3446C28.761 15.082 26.9208 13.241 24.6574 13.241ZM8.18827 21.4482H7.36755V22.2689C7.36755 22.7226 7.00047 23.0897 6.54683 23.0897C6.09319 23.0897 5.72611 22.7226 5.72611 22.2689V21.4482H4.90539C4.45175 21.4482 4.08467 21.0811 4.08467 20.6275C4.08467 20.1739 4.45175 19.8068 4.90539 19.8068H5.72611V18.9861C5.72611 18.5324 6.09319 18.1653 6.54683 18.1653C7.00047 18.1653 7.36755 18.5324 7.36755 18.9861V19.8068H8.18827C8.64191 19.8068 9.00899 20.1739 9.00899 20.6275C9.00899 21.0811 8.64191 21.4482 8.18827 21.4482ZM12.2919 23.9104C12.2919 24.364 11.9248 24.7311 11.4712 24.7311C11.0175 24.7311 10.6504 24.364 10.6504 23.9104V18.1653H9.82971C9.37607 18.1653 9.00899 17.7983 9.00899 17.3446C9.00899 16.891 9.37607 16.5239 9.82971 16.5239H11.4712C11.9248 16.5239 12.2919 16.891 12.2919 17.3446V23.9104ZM18.8576 22.2689C18.8576 23.6266 17.7532 24.7311 16.3955 24.7311C15.0378 24.7311 13.9333 23.6266 13.9333 22.2689V17.3446C13.9333 16.891 14.3004 16.5239 14.754 16.5239C15.2077 16.5239 15.5748 16.891 15.5748 17.3446V22.2689C15.5748 22.7218 15.9434 23.0897 16.3955 23.0897C16.8475 23.0897 17.2162 22.7218 17.2162 22.2689V17.3446C17.2162 16.891 17.5833 16.5239 18.0369 16.5239C18.4906 16.5239 18.8576 16.891 18.8576 17.3446V22.2689ZM22.9612 21.4482H22.1405V23.9104C22.1405 24.364 21.7734 24.7311 21.3198 24.7311C20.8662 24.7311 20.4991 24.364 20.4991 23.9104V17.3446C20.4991 16.891 20.8662 16.5239 21.3198 16.5239H22.9612C24.3189 16.5239 25.4234 17.6284 25.4234 18.9861C25.4234 20.3438 24.3189 21.4482 22.9612 21.4482ZM4.90539 6.56583H6.54683C7.00047 6.56583 7.36755 6.19875 7.36755 5.74511C7.36755 5.29147 7.00047 4.92439 6.54683 4.92439H4.90539C4.45175 4.92439 4.08467 5.29147 4.08467 5.74511C4.08467 6.19875 4.45175 6.56583 4.90539 6.56583ZM22.1405 5.74511C22.1405 6.19875 22.5076 6.56583 22.9612 6.56583H24.6027C25.0563 6.56583 25.4234 6.19875 25.4234 5.74511C25.4234 5.29147 25.0563 4.92439 24.6027 4.92439H22.9612C22.5076 4.92439 22.1405 5.29147 22.1405 5.74511ZM7.23613 9.24723L5.81431 10.068C5.42157 10.2948 5.28691 10.7965 5.51453 11.1892C5.73776 11.5787 6.23879 11.7172 6.63503 11.4898L8.05685 10.669C8.44959 10.4422 8.58424 9.94052 8.35663 9.54778C8.13055 9.15427 7.62723 9.02121 7.23613 9.24723ZM22.2719 2.35241L23.6938 1.53169C24.0865 1.30484 24.2212 0.803165 23.9935 0.410423C23.7691 0.0169151 23.2658 -0.11533 22.873 0.109875L21.4512 0.930596C21.0585 1.15744 20.9238 1.65912 21.1514 2.05186C21.3747 2.44132 21.8758 2.57986 22.2719 2.35241ZM21.4512 10.6143L22.873 11.4351C23.2692 11.6625 23.7703 11.524 23.9935 11.1345C24.2212 10.7418 24.0865 10.24 23.6938 10.0132L22.2719 9.19252C21.8808 8.9689 21.3775 9.10114 21.1514 9.49307C20.9239 9.88581 21.0585 10.3875 21.4512 10.6143ZM5.81425 1.53169L7.23607 2.35241C7.63226 2.57986 8.13328 2.44138 8.35657 2.05186C8.58419 1.65912 8.44953 1.15739 8.05679 0.930596L6.63498 0.109875C6.24387 -0.112923 5.7405 0.0185018 5.51447 0.410423C5.28691 0.803165 5.42157 1.3049 5.81425 1.53169Z" fill="url(#paint1_linear_94_3020)"/>
</g>
<defs>
<linearGradient id="paint0_linear_94_3020" x1="14.7538" y1="25.5518" x2="14.7538" y2="1.2184e-05" gradientUnits="userSpaceOnUse">
<stop stop-color="#ADDCFF"/>
<stop offset="0.5028" stop-color="#EAF6FF"/>
<stop offset="1" stop-color="#EAF6FF"/>
</linearGradient>
<linearGradient id="paint1_linear_94_3020" x1="0.74707" y1="0.000244141" x2="28.7608" y2="28.0142" gradientUnits="userSpaceOnUse">
<stop stop-color="#9A4DFF"/>
<stop offset="1" stop-color="#F600DD"/>
</linearGradient>
<clipPath id="clip0_94_3020">
<rect width="28.0139" height="28.0139" fill="white" transform="translate(0.746094)"/>
</clipPath>
</defs>
</svg>
