<svg width="277" height="276" viewBox="0 0 277 276" fill="none" xmlns="http://www.w3.org/2000/svg">
<circle cx="138.388" cy="137.957" r="137.457" stroke="url(#paint0_linear_65_2581)" stroke-dasharray="10 10"/>
<circle cx="138.386" cy="137.957" r="111.929" stroke="url(#paint1_linear_65_2581)" stroke-dasharray="8 8"/>
<circle cx="138.388" cy="137.957" r="82.5569" fill="white" fill-opacity="0.8"/>
<circle cx="138.389" cy="137.957" r="59.7451" fill="url(#paint2_linear_65_2581)"/>
<path fill-rule="evenodd" clip-rule="evenodd" d="M149.012 136.763C149.695 136.079 150.803 136.079 151.486 136.763L156.736 142.013C157.42 142.696 157.42 143.804 156.736 144.487L144.486 156.737C143.803 157.421 142.695 157.421 142.012 156.737L136.762 151.487C136.078 150.804 136.078 149.696 136.762 149.013L149.012 136.763ZM140.474 150.25L143.249 153.025L153.024 143.25L150.249 140.475L140.474 150.25Z" fill="white"/>
<path fill-rule="evenodd" clip-rule="evenodd" d="M119.262 119.263C119.693 118.832 120.317 118.656 120.91 118.799L146.285 124.924C146.947 125.084 147.456 125.614 147.59 126.282L150.215 139.407C150.33 139.981 150.15 140.574 149.736 140.987L140.986 149.737C140.573 150.151 139.98 150.331 139.406 150.216L126.281 147.591C125.613 147.457 125.083 146.948 124.923 146.286L118.798 120.911C118.655 120.318 118.831 119.694 119.262 119.263ZM122.872 122.873L128.063 144.378L139.174 146.6L146.599 139.175L144.377 128.064L122.872 122.873Z" fill="white"/>
<path fill-rule="evenodd" clip-rule="evenodd" d="M119.262 119.263C119.945 118.579 121.053 118.579 121.736 119.263L135.012 132.538C135.695 133.221 135.695 134.33 135.012 135.013C134.329 135.696 133.221 135.696 132.537 135.013L119.262 121.737C118.578 121.054 118.578 119.946 119.262 119.263Z" fill="white"/>
<path fill-rule="evenodd" clip-rule="evenodd" d="M136.249 134.5C135.283 134.5 134.499 135.284 134.499 136.25C134.499 137.216 135.283 138 136.249 138C137.216 138 137.999 137.216 137.999 136.25C137.999 135.284 137.216 134.5 136.249 134.5ZM130.999 136.25C130.999 133.351 133.35 131 136.249 131C139.149 131 141.499 133.351 141.499 136.25C141.499 139.149 139.149 141.5 136.249 141.5C133.35 141.5 130.999 139.149 130.999 136.25Z" fill="white"/>
<defs>
<linearGradient id="paint0_linear_65_2581" x1="-21.0476" y1="-108.202" x2="606.042" y2="-40.7336" gradientUnits="userSpaceOnUse">
<stop stop-color="#3A8EF6"/>
<stop offset="1" stop-color="#6F3AFA"/>
</linearGradient>
<linearGradient id="paint1_linear_65_2581" x1="8.45306" y1="-62.6525" x2="519.506" y2="-7.66883" gradientUnits="userSpaceOnUse">
<stop stop-color="#3A8EF6"/>
<stop offset="1" stop-color="#6F3AFA"/>
</linearGradient>
<linearGradient id="paint2_linear_65_2581" x1="69.342" y1="31.353" x2="430.158" y2="-15.7384" gradientUnits="userSpaceOnUse">
<stop stop-color="#FFC107"/>
<stop offset="1" stop-color="#A0A0A0"/>
</linearGradient>
</defs>
</svg>
